# xmcd CD database file
# Copyright (C) 1995-1998 Ti Kan
#
# Track frame offsets:
#	150
#	8865
#	18272
#	32867
#	41472
#	51840
#	61602
#	83282
#	91490
#	98400
#	107702
#	116970
#	130770
#	138567
#	146075
#	151205
#	160782
#	171190
#	194577
#	203030
#	207775
#	218707
#	227405
#	231615
#	237180
#	240520
#	245792
#	255952
#	272265
#	281405
#
# Disc length: 4189 seconds
#
# Revision: 1
# Processed by: cddbd v1.4b41PL1 Copyright (c) Steve Scherf et al.
# Submitted via: CDex 1.30
#
DISCID=90105b1e
DTITLE=Ben and Brian - Ben and Brian Wide Open Spaceheads
DYEAR=2001
DGENRE=Country
TTITLE0="Goodbye Shril" -Ben and Brian Band
TTITLE1=Celebrity Millionaire with Scooby Doo
TTITLE2=Kandid KLME - George Strait calls San Antonio
TTITLE3=Manilow Country
TTITLE4="Born to fry" (Sara Evans Laff along mix) - Ben and Brian Band
TTITLE5=Battle of the Sexes - with Tim and Faith
TTITLE6="You walked in" - Lonestar in studio
TTITLE7=Randy Travis on King of the Hill
TTITLE8=Olympic star Hunter
TTITLE9=Willie Nelson's Greatest Hits - Re-Hashed
TTITLE10=Mattress Madness
TTITLE11=Kandid KMLE - Kenny Chesney Day
TTITLE12="HG.'s Traffic's Sexy" - Kenny Chesney
TTITLE13=Celebrity Millionaire with Ozzy
TTITLE14=Randy Sings with Charlie Pride
TTITLE15=Al Gore's Halloween Song (Fuzzy Math)
TTITLE16=Bill Enqvall Visits
TTITLE17="Amazed" - Lonestar in studio
TTITLE18=Father's Day Special Madness
TTITLE19=Randy's Not So Deep Thought
TTITLE20=Tom Brokaw interviews Tim McGraw
TTITLE21=Al Gore calls the 7-Eleven, again
TTITLE22=Inside Hollywood with Stacy Brooks
TTITLE23=Sports with H.G. and Lonestar
TTITLE24=Brad Paisley's "dixy Doodle"
TTITLE25=The Janet Reno Experience
TTITLE26=How to Make Money Madness
TTITLE27="Don't Laugh At Me" - Mark wills at CTUSA
TTITLE28=Kandid KMLE - Millionaire contest
TTITLE29="Christmas" - Ben and Brian Band
EXTD=YEAR: 2001  ID3G:   2
EXTT0=
EXTT1=
EXTT2=
EXTT3=
EXTT4=
EXTT5=
EXTT6=
EXTT7=
EXTT8=
EXTT9=
EXTT10=
EXTT11=
EXTT12=
EXTT13=
EXTT14=
EXTT15=
EXTT16=
EXTT17=
EXTT18=
EXTT19=
EXTT20=
EXTT21=
EXTT22=
EXTT23=
EXTT24=
EXTT25=
EXTT26=
EXTT27=
EXTT28=
EXTT29=
PLAYORDER=
